
<global>
amp_veltrack=0
ampeg_attack=0.01
ampeg_release=2.5
</global>

<group>
group_label=PP
loop_mode=loop_continuous
xf_cccurve=gain
xfin_hicc1=42
xfout_hicc1=85
xfout_locc1=42

<region>
hikey=g6
hivel=127
lokey=f#6
loop_end=302782
loop_start=130882
loop_xfade=45943
lovel=0
offset=17173
pitch_keycenter=g6
release_start=288000
release_xfade=17732
sample=Violins2_espressivo_PP_G6.opus
</region>

<region>
hikey=g5
hivel=127
lokey=f#5
loop_end=287763
loop_start=130992
loop_xfade=45982
lovel=0
offset=7753
pitch_keycenter=g5
release_start=288000
release_xfade=18916
sample=Violins2_espressivo_PP_G5.opus
</region>

<region>
hikey=g4
hivel=127
lokey=f#4
loop_end=258916
loop_start=117860
loop_xfade=41372
lovel=0
offset=3079
pitch_keycenter=g4
release_start=288000
release_xfade=15968
sample=Violins2_espressivo_PP_G4.opus
</region>

<region>
hivel=127
key=g3
loop_end=255053
loop_start=116102
loop_xfade=40755
lovel=0
offset=10608
release_start=288000
release_xfade=15729
sample=Violins2_espressivo_PP_G3.opus
</region>

<region>
hikey=f6
hivel=127
lokey=e6
loop_end=285190
loop_start=129821
loop_xfade=45570
lovel=0
offset=21539
pitch_keycenter=f6
release_start=288000
release_xfade=17588
sample=Violins2_espressivo_PP_F6.opus
</region>

<region>
hikey=f5
hivel=127
lokey=e5
loop_end=287763
loop_start=130992
loop_xfade=45982
lovel=0
offset=17101
pitch_keycenter=f5
release_start=288000
release_xfade=17747
sample=Violins2_espressivo_PP_F5.opus
</region>

<region>
hikey=f4
hivel=127
lokey=e4
loop_end=260418
loop_start=118544
loop_xfade=41612
lovel=0
offset=15669
pitch_keycenter=f4
release_start=288000
release_xfade=16060
sample=Violins2_espressivo_PP_F4.opus
</region>

<region>
hikey=d#6
hivel=127
lokey=d6
loop_end=285523
loop_start=129972
loop_xfade=45624
lovel=0
offset=16871
pitch_keycenter=d#6
release_start=288000
release_xfade=17608
sample=Violins2_espressivo_PP_D#6.opus
</region>

<region>
hikey=d#5
hivel=127
lokey=d5
loop_end=266051
loop_start=121108
loop_xfade=42512
lovel=0
offset=7415
pitch_keycenter=d#5
release_start=288000
release_xfade=16408
sample=Violins2_espressivo_PP_D#5.opus
</region>

<region>
hikey=d#4
hivel=127
lokey=d4
loop_end=251878
loop_start=114657
loop_xfade=40247
lovel=0
offset=5882
pitch_keycenter=d#4
release_start=288000
release_xfade=15534
sample=Violins2_espressivo_PP_D#4.opus
</region>

<region>
hikey=c#6
hivel=127
lokey=c6
loop_end=271066
loop_start=123391
loop_xfade=43314
lovel=0
offset=14261
pitch_keycenter=c#6
release_start=288000
release_xfade=16717
sample=Violins2_espressivo_PP_C#6.opus
</region>

<region>
hikey=c#5
hivel=127
lokey=c5
loop_end=246724
loop_start=112311
loop_xfade=39424
lovel=0
offset=1755
pitch_keycenter=c#5
release_start=288000
release_xfade=15216
sample=Violins2_espressivo_PP_C#5.opus
</region>

<region>
hikey=c#4
hivel=127
lokey=c4
loop_end=241534
loop_start=109948
loop_xfade=38595
lovel=0
offset=8297
pitch_keycenter=c#4
release_start=288000
release_xfade=14896
sample=Violins2_espressivo_PP_C#4.opus
</region>

<region>
hikey=b5
hivel=127
lokey=a#5
loop_end=276905
loop_start=126049
loop_xfade=44247
lovel=0
offset=2241
pitch_keycenter=b5
release_start=288000
release_xfade=17077
sample=Violins2_espressivo_PP_B5.opus
</region>

<region>
hikey=b4
hivel=127
lokey=a#4
loop_end=252743
loop_start=115050
loop_xfade=40386
lovel=0
offset=2263
pitch_keycenter=b4
release_start=288000
release_xfade=15587
sample=Violins2_espressivo_PP_B4.opus
</region>

<region>
hikey=b3
hivel=127
lokey=a#3
loop_end=245936
loop_start=111952
loop_xfade=39298
lovel=0
offset=3405
pitch_keycenter=b3
release_start=288000
release_xfade=15167
sample=Violins2_espressivo_PP_B3.opus
</region>

<region>
hikey=E7
hivel=127
lokey=g#6
loop_end=303201
loop_start=130251
loop_xfade=45721
lovel=0
offset=19952
pitch_keycenter=A6
release_start=288000
release_xfade=17646
sample=Violins2_espressivo_PP_A6.opus
</region>

<region>
hikey=a5
hivel=127
lokey=g#5
loop_end=262417
loop_start=119454
loop_xfade=41932
lovel=0
offset=12439
pitch_keycenter=a5
release_start=288000
release_xfade=16183
sample=Violins2_espressivo_PP_A5.opus
</region>

<region>
hikey=a4
hivel=127
lokey=g#4
loop_end=250479
loop_start=114020
loop_xfade=40024
lovel=0
offset=5470
pitch_keycenter=a4
release_start=288000
release_xfade=15447
sample=Violins2_espressivo_PP_A4.opus
</region>

<region>
hikey=a3
hivel=127
lokey=g#3
loop_end=246708
loop_start=112303
loop_xfade=39421
lovel=0
offset=7727
pitch_keycenter=a3
release_start=288000
release_xfade=15215
sample=Violins2_espressivo_PP_A3.opus
</region>
</group>

<group>
group_label=MF
loop_mode=loop_continuous
xf_cccurve=gain
xfin_hicc1=85
xfin_locc1=42
xfout_hicc1=127
xfout_locc1=85

<region>
hikey=g6
hivel=127
lokey=f#6
loop_end=274597
loop_start=75712
loop_xfade=40236
lovel=0
offset=1960
pitch_keycenter=g6
release_start=288000
release_xfade=15529
sample=Violins2_espressivo_MF_G6.opus
</region>

<region>
hikey=g5
hivel=127
lokey=f#5
loop_end=279434
loop_start=85828
loop_xfade=41129
lovel=0
offset=2323
pitch_keycenter=g5
release_start=288000
release_xfade=15874
sample=Violins2_espressivo_MF_G5.opus
</region>

<region>
hikey=g4
hivel=127
lokey=f#4
loop_end=283087
loop_start=114728
loop_xfade=40273
lovel=0
offset=2063
pitch_keycenter=g4
release_start=288000
release_xfade=15543
sample=Violins2_espressivo_MF_G4.opus
</region>

<region>
hivel=127
key=g3
loop_end=283541
loop_start=80378
loop_xfade=40081
lovel=0
offset=753
release_start=288000
release_xfade=15469
sample=Violins2_espressivo_MF_G3.opus
</region>

<region>
hikey=f6
hivel=127
lokey=e6
loop_end=283881
loop_start=82752
loop_xfade=40667
lovel=0
offset=4072
pitch_keycenter=f6
release_start=288000
release_xfade=15695
sample=Violins2_espressivo_MF_F6.opus
</region>

<region>
hikey=f5
hivel=127
lokey=e5
loop_end=281415
loop_start=81883
loop_xfade=41819
lovel=0
offset=1421
pitch_keycenter=f5
release_start=288000
release_xfade=16140
sample=Violins2_espressivo_MF_F5.opus
</region>

<region>
hikey=f4
hivel=127
lokey=e4
loop_end=289198
loop_start=115412
loop_xfade=40513
lovel=0
offset=3243
pitch_keycenter=f4
release_start=288000
release_xfade=15636
sample=Violins2_espressivo_MF_F4.opus
</region>

<region>
hikey=d#6
hivel=127
lokey=d6
loop_end=274033
loop_start=83850
loop_xfade=39884
lovel=0
offset=3023
pitch_keycenter=d#6
release_start=288000
release_xfade=15393
sample=Violins2_espressivo_MF_D#6.opus
</region>

<region>
hikey=d#5
hivel=127
lokey=d5
loop_end=246138
loop_start=112044
loop_xfade=39330
lovel=0
offset=2061
pitch_keycenter=d#5
release_start=288000
release_xfade=15179
sample=Violins2_espressivo_MF_D#5.opus
</region>

<region>
hikey=d#4
hivel=127
lokey=d4
loop_end=283191
loop_start=111822
loop_xfade=39252
lovel=0
offset=206
pitch_keycenter=d#4
release_start=288000
release_xfade=15149
sample=Violins2_espressivo_MF_D#4.opus
</region>

<region>
hikey=c#6
hivel=127
lokey=c6
loop_end=283649
loop_start=86363
loop_xfade=40024
lovel=0
offset=1053
pitch_keycenter=c#6
release_start=288000
release_xfade=15447
sample=Violins2_espressivo_MF_C#6.opus
</region>

<region>
hikey=c#5
hivel=127
lokey=c5
loop_end=248165
loop_start=112967
loop_xfade=39654
lovel=0
offset=1178
pitch_keycenter=c#5
release_start=288000
release_xfade=15305
sample=Violins2_espressivo_MF_C#5.opus
</region>

<region>
hikey=c#4
hivel=127
lokey=c4
loop_end=288420
loop_start=112297
loop_xfade=39419
lovel=0
offset=1954
pitch_keycenter=c#4
release_start=288000
release_xfade=15214
sample=Violins2_espressivo_MF_C#4.opus
</region>

<region>
hikey=b5
hivel=127
lokey=a#5
loop_end=289789
loop_start=107190
loop_xfade=40327
lovel=0
pitch_keycenter=b5
release_start=288000
release_xfade=15564
sample=Violins2_espressivo_MF_B5.opus
</region>

<region>
hikey=b4
hivel=127
lokey=a#4
loop_end=283649
loop_start=77954
loop_xfade=39709
lovel=0
offset=198
pitch_keycenter=b4
release_start=288000
release_xfade=15326
sample=Violins2_espressivo_MF_B4.opus
</region>

<region>
hikey=b3
hivel=127
lokey=a#3
loop_end=290259
loop_start=115043
loop_xfade=40383
lovel=0
offset=1834
pitch_keycenter=b3
release_start=288000
release_xfade=15586
sample=Violins2_espressivo_MF_B3.opus
</region>

<region>
hikey=E7
hivel=127
lokey=g#6
loop_end=272005
loop_start=81122
loop_xfade=39610
lovel=0
offset=2763
pitch_keycenter=A6
release_start=288000
release_xfade=15287
sample=Violins2_espressivo_MF_A6.opus
</region>

<region>
hikey=a5
hivel=127
lokey=g#5
loop_end=283145
loop_start=66342
loop_xfade=40569
lovel=0
offset=1888
pitch_keycenter=a5
release_start=288000
release_xfade=15657
sample=Violins2_espressivo_MF_A5.opus
</region>

<region>
hikey=a4
hivel=127
lokey=g#4
loop_end=282898
loop_start=84843
loop_xfade=39874
lovel=0
offset=2326
pitch_keycenter=a4
release_start=288000
release_xfade=15389
sample=Violins2_espressivo_MF_A4.opus
</region>

<region>
hikey=a3
hivel=127
lokey=g#3
loop_end=288727
loop_start=94478
loop_xfade=39830
lovel=0
offset=2190
pitch_keycenter=a3
release_start=288000
release_xfade=15372
sample=Violins2_espressivo_MF_A3.opus
</region>
</group>

<group>
group_label=FF
loop_mode=loop_continuous
xf_cccurve=gain
xfin_hicc1=127
xfin_locc1=85
xfout_hicc1=127
xfout_locc1=127

<region>
hikey=g6
hivel=127
lokey=f#6
loop_end=250097
loop_start=113846
loop_xfade=39963
lovel=0
offset=904
pitch_keycenter=g6
release_start=288000
release_xfade=15424
sample=Violins2_espressivo_FF_G6.opus
</region>

<region>
hikey=g5
hivel=127
lokey=f#5
loop_end=278276
loop_start=80595
loop_xfade=39522
lovel=0
offset=1774
pitch_keycenter=g5
release_start=288000
release_xfade=15254
sample=Violins2_espressivo_FF_G5.opus
</region>

<region>
hikey=g4
hivel=127
lokey=f#4
loop_end=282007
loop_start=82057
loop_xfade=39629
lovel=0
offset=3238
pitch_keycenter=g4
release_start=288000
release_xfade=15295
sample=Violins2_espressivo_FF_G4.opus
</region>

<region>
hivel=127
key=g3
loop_end=286145
loop_start=104308
loop_xfade=40666
lovel=0
offset=1490
release_start=288000
release_xfade=15695
sample=Violins2_espressivo_FF_G3.opus
</region>

<region>
hikey=f6
hivel=127
lokey=e6
loop_end=275108
loop_start=83374
loop_xfade=39780
lovel=0
offset=2086
pitch_keycenter=f6
release_start=288000
release_xfade=15353
sample=Violins2_espressivo_FF_F6.opus
</region>

<region>
hikey=f5
hivel=127
lokey=e5
loop_end=276875
loop_start=85907
loop_xfade=39335
lovel=0
offset=1608
pitch_keycenter=f5
release_start=288000
release_xfade=15181
sample=Violins2_espressivo_FF_F5.opus
</region>

<region>
hikey=f4
hivel=127
lokey=e4
loop_end=282880
loop_start=83735
loop_xfade=40512
lovel=0
offset=1338
pitch_keycenter=f4
release_start=288000
release_xfade=15636
sample=Violins2_espressivo_FF_F4.opus
</region>

<region>
hikey=d#6
hivel=127
lokey=d6
loop_end=283979
loop_start=87499
loop_xfade=40065
lovel=0
offset=2071
pitch_keycenter=d#6
release_start=288000
release_xfade=15463
sample=Violins2_espressivo_FF_D#6.opus
</region>

<region>
hikey=d#5
hivel=127
lokey=d5
loop_end=280861
loop_start=81996
loop_xfade=40320
lovel=0
offset=1919
pitch_keycenter=d#5
release_start=288000
release_xfade=15562
sample=Violins2_espressivo_FF_D#5.opus
</region>

<region>
hikey=d#4
hivel=127
lokey=d4
loop_end=279459
loop_start=88533
loop_xfade=40172
lovel=0
offset=1112
pitch_keycenter=d#4
release_start=288000
release_xfade=15504
sample=Violins2_espressivo_FF_D#4.opus
</region>

<region>
hikey=c#6
hivel=127
lokey=c6
loop_end=247746
loop_start=112775
loop_xfade=39587
lovel=0
offset=257
pitch_keycenter=c#6
release_start=288000
release_xfade=15279
sample=Violins2_espressivo_FF_C#6.opus
</region>

<region>
hikey=c#5
hivel=127
lokey=c5
loop_end=281088
loop_start=84599
loop_xfade=40291
lovel=0
offset=618
pitch_keycenter=c#5
release_start=288000
release_xfade=15550
sample=Violins2_espressivo_FF_C#5.opus
</region>

<region>
hikey=c#4
hivel=127
lokey=c4
loop_end=281783
loop_start=92864
loop_xfade=39622
lovel=0
offset=547
pitch_keycenter=c#4
release_start=288000
release_xfade=15292
sample=Violins2_espressivo_FF_C#4.opus
</region>

<region>
hikey=b5
hivel=127
lokey=a#5
loop_end=271913
loop_start=75394
loop_xfade=39628
lovel=0
offset=1198
pitch_keycenter=b5
release_start=288000
release_xfade=15294
sample=Violins2_espressivo_FF_B5.opus
</region>

<region>
hikey=b4
hivel=127
lokey=a#4
loop_end=277985
loop_start=82789
loop_xfade=40345
lovel=0
offset=1072
pitch_keycenter=b4
release_start=288000
release_xfade=15571
sample=Violins2_espressivo_FF_B4.opus
</region>

<region>
hikey=b3
hivel=127
lokey=a#3
loop_end=286618
loop_start=87167
loop_xfade=41285
lovel=0
offset=1151
pitch_keycenter=b3
release_start=288000
release_xfade=15934
sample=Violins2_espressivo_FF_B3.opus
</region>

<region>
hikey=E7
hivel=127
lokey=g#6
loop_end=265504
loop_start=77403
loop_xfade=39055
lovel=0
offset=1684
pitch_keycenter=A6
release_start=288000
release_xfade=15073
sample=Violins2_espressivo_FF_A6.opus
</region>

<region>
hikey=a5
hivel=127
lokey=g#5
loop_end=278883
loop_start=108140
loop_xfade=40479
lovel=0
offset=243
pitch_keycenter=a5
release_start=288000
release_xfade=15623
sample=Violins2_espressivo_FF_A5.opus
</region>

<region>
hikey=a4
hivel=127
lokey=g#4
loop_end=278045
loop_start=74469
loop_xfade=39605
lovel=0
offset=193
pitch_keycenter=a4
release_start=288000
release_xfade=15285
sample=Violins2_espressivo_FF_A4.opus
</region>

<region>
hikey=a3
hivel=127
lokey=g#3
loop_end=282069
loop_start=78204
loop_xfade=40083
lovel=0
offset=724
pitch_keycenter=a3
release_start=288000
release_xfade=15470
sample=Violins2_espressivo_FF_A3.opus
</region>
</group>